<svg xmlns="http://www.w3.org/2000/svg" version="1.1" xmlns:xlink="http://www.w3.org/1999/xlink" xmlns:svgjs="http://svgjs.dev/svgjs" width="512" height="512" viewBox="0 0 128 128"><g transform="matrix(0.8046875,0,0,0.8046875,12.221578124999994,39.32525214080768)"><svg viewBox="0 0 96 45" data-background-color="#ffffff" preserveAspectRatio="xMidYMid meet" height="80" width="150" xmlns="http://www.w3.org/2000/svg" xmlns:xlink="http://www.w3.org/1999/xlink"><g id="tight-bounds" transform="matrix(1,0,0,1,0.25950000000000273,0.49782324740255035)"><svg viewBox="0 0 95.481 44.00435350519491" height="44.00435350519491" width="95.481"><g><svg viewBox="0 0 95.481 44.00435350519491" height="44.00435350519491" width="95.481"><g><svg viewBox="0 0 95.481 44.00435350519491" height="44.00435350519491" width="95.481"><g id="textblocktransform"><svg viewBox="0 0 95.481 44.00435350519491" height="44.00435350519491" width="95.481" id="textblock"><g><svg viewBox="0 0 95.481 44.00435350519491" height="44.00435350519491" width="95.481"><g><svg viewBox="0 0 95.481 44.00435350519491" height="44.00435350519491" width="95.481"><g><svg xmlns="http://www.w3.org/2000/svg" xmlns:xlink="http://www.w3.org/1999/xlink" version="1.1" x="0" y="0" viewBox="0.191 27.762 99.809 45.998999999999995" enable-background="new 0 0 100 100" xml:space="preserve" height="44.00435350519491" width="95.481" class="icon-icon-0" data-fill-palette-color="accent" id="icon-0"></svg></g></svg></g></svg></g></svg></g></svg></g><g></g></svg></g><defs></defs><mask id="cf8f38b7-277e-4616-a33f-cd737cfe51b8"><g id="SvgjsG9665"><svg viewBox="0 0 95.481 44.00435350519491" height="44.00435350519491" width="95.481"><g><svg viewBox="0 0 95.481 44.00435350519491" height="44.00435350519491" width="95.481"><g><svg viewBox="0 0 95.481 44.00435350519491" height="44.00435350519491" width="95.481"><g id="SvgjsG9664"><svg viewBox="0 0 95.481 44.00435350519491" height="44.00435350519491" width="95.481" id="SvgjsSvg9663"><g><svg viewBox="0 0 95.481 44.00435350519491" height="44.00435350519491" width="95.481"><g><svg viewBox="0 0 95.481 44.00435350519491" height="44.00435350519491" width="95.481"><g><svg xmlns="http://www.w3.org/2000/svg" xmlns:xlink="http://www.w3.org/1999/xlink" version="1.1" x="0" y="0" viewBox="0.191 27.762 99.809 45.998999999999995" enable-background="new 0 0 100 100" xml:space="preserve" height="44.00435350519491" width="95.481" class="icon-icon-0" data-fill-palette-color="accent" id="SvgjsSvg9662"><g fill="white"><path fill="white" d="M95.009 48.701V41.323H78.573V41.215L50.096 27.762 21.617 41.323H5.182V48.701L0.191 53.8H5.181V70.019H21.617V73.761H31.11V70.019H43.858V58.789H48.849V70.018H51.343V58.789H56.334V70.018H69.081V73.76H78.573V70.018H95.009V53.8H100zM18.905 65.027H8.925V53.8H18.905zM20.153 45.066H8.925V43.818H20.154V45.066zM41.362 65.027H31.381V53.8H41.362zM56.334 56.294H43.857V53.8H56.334zM68.81 65.027H58.83V53.8H68.81zM25.144 43.818L27.64 42.57H72.554L75.049 43.818zM91.267 65.027H81.287V53.8H91.267zM91.267 45.066H80.039V43.818H91.267z"></path></g></svg></g></svg></g></svg></g></svg></g></svg></g><g></g></svg></g><defs><mask></mask></defs></svg><rect width="95.481" height="44.00435350519491" fill="black" stroke="none" visibility="hidden"></rect></g></mask><linearGradient x1="0.054" x2="0.941" y1="0.5" y2="0.5" id="236c3d7e-e295-4c7e-b9a5-096e6f7cb43b"><stop stop-color="#0f3054" offset="0"></stop><stop stop-color="#3b8dcb" offset="0.498"></stop><stop stop-color="#0f3054" offset="1"></stop></linearGradient><rect width="95.481" height="44.00435350519491" fill="#000000" mask="url(#cf8f38b7-277e-4616-a33f-cd737cfe51b8)" data-fill-palette-color="accent"></rect></svg><rect width="95.481" height="44.00435350519491" fill="none" stroke="none" visibility="hidden"></rect></g></svg></g></svg>
